<svg width="145" height="145" viewBox="0 0 145 145" fill="none" xmlns="http://www.w3.org/2000/svg">
<path d="M144.094 69.3646V69.1406C144.057 68.2292 144 67.3229 143.927 66.4167C143.854 65.4896 143.76 64.5469 143.651 63.6198C143.427 61.7656 143.13 59.9323 142.776 58.099C142.594 57.1927 142.391 56.3021 142.188 55.3958C139.188 42.8229 132.854 31.3385 124 22.1146C123.37 21.4635 122.719 20.8177 122.073 20.1875C120.755 18.9115 119.385 17.6875 117.979 16.5208L117.922 16.4635C117.24 15.9115 116.536 15.3542 115.828 14.8177C115.161 14.2969 114.479 13.7969 113.792 13.2969C112.995 12.724 112.161 12.1667 111.328 11.6302C110.552 11.1146 109.755 10.6302 108.958 10.151C108.182 9.6875 107.365 9.22396 106.552 8.78125C105.734 8.33333 104.901 7.89063 104.068 7.48438C103.292 7.09375 102.516 6.72396 101.734 6.36979C101.625 6.31771 101.495 6.26042 101.365 6.20312C100.568 5.85417 99.7552 5.5 98.9219 5.16667C98.0521 4.81771 97.1615 4.48438 96.2708 4.16667C93.4948 3.16667 90.625 2.33333 87.6771 1.70312V16.875C88.9219 17.224 90.1406 17.6146 91.3438 18.0417C113.552 25.9479 129.443 47.1719 129.443 72.0833C129.443 103.755 103.755 129.443 72.0833 129.443C40.3958 129.443 14.724 103.755 14.724 72.0833C14.724 42.9792 36.4062 18.9479 64.5104 15.2396V46.3646L24.3802 99.4844H119.203L88.3698 55.8854L78.6719 68.4271L89.9219 84.3333H54.8125L79.6615 51.4375L79.4948 0.369792C77.0469 0.130208 74.5833 0 72.0833 0C63.9896 0 56.2292 1.33333 48.9688 3.79688C43.9479 5.5 39.1927 7.73958 34.7292 10.4479C34.7292 10.4479 34.7083 10.4271 34.7083 10.4479C24.8177 16.4844 16.4844 24.8177 10.4479 34.7083C10.4271 34.7083 10.4479 34.7292 10.4479 34.7292C7.74479 39.1875 5.5 43.9531 3.79688 48.9688C1.33333 56.2292 0 63.9896 0 72.0833C0 80.1771 1.33333 87.9375 3.79688 95.1979C8.91146 110.234 18.8542 123.073 31.7812 131.833H31.8021C32.7656 132.464 33.7292 133.094 34.7083 133.703C35.7083 134.312 36.7292 134.906 37.7448 135.443C38.7656 136 39.8021 136.516 40.8385 137.036C41.375 137.297 41.8958 137.557 42.4479 137.776C43.5052 138.26 44.5833 138.703 45.6562 139.151C53.8385 142.37 62.75 144.151 72.0833 144.151C80.1771 144.151 87.9375 142.818 95.1979 140.354C97.4219 139.594 99.5885 138.74 101.719 137.776H101.734C102.792 137.297 103.828 136.776 104.865 136.26H104.885C107.458 134.927 109.958 133.443 112.349 131.833C112.37 131.849 112.37 131.833 112.37 131.833C120.016 126.63 126.63 120.036 131.833 112.37C131.833 112.37 131.854 112.37 131.833 112.349C132.797 110.922 133.724 109.458 134.594 107.958V107.943C135.167 106.943 135.724 105.922 136.26 104.885C136.797 103.849 137.312 102.792 137.776 101.719C138.26 100.661 138.703 99.5885 139.146 98.5156C142.37 90.3281 144.151 81.4167 144.151 72.0833C144.151 71.1771 144.13 70.2708 144.094 69.3646Z" fill="#6DD19D"/>
</svg>
